<svg width="11" height="11" viewBox="0 0 11 11" fill="none" xmlns="http://www.w3.org/2000/svg">
<path d="M10.8701 0.130407C10.6966 -0.0431225 10.4152 -0.0431225 10.2417 0.130407L0.130391 10.2417C-0.0431382 10.4152 -0.0431382 10.6966 0.130391 10.8701C0.217145 10.9569 0.330883 11.0003 0.4446 11.0003C0.558317 11.0003 0.672034 10.9569 0.758809 10.8701L10.8701 0.758782C11.0436 0.585274 11.0436 0.303936 10.8701 0.130407Z" fill="white"/>
<path d="M10.8701 10.2417L0.758766 0.130391C0.585258 -0.0431381 0.303899 -0.0431381 0.130391 0.130391C-0.0431382 0.303898 -0.0431382 0.585235 0.130391 0.758764L10.2417 10.8701C10.3285 10.9568 10.4422 11.0002 10.5559 11.0002C10.6696 11.0002 10.7834 10.9568 10.8701 10.8701C11.0436 10.6965 11.0436 10.4152 10.8701 10.2417Z" fill="white"/>
</svg>
